<svg xmlns="http://www.w3.org/2000/svg" xmlns:xlink="http://www.w3.org/1999/xlink" version="1.1" x="0px" y="0px" width="500px" height="2800px" viewBox="0 0 500 2800" enable-background="new 0 0 500 2800" xml:space="preserve"><style>.style0{fill:	#E8AE46;}.style1{fill:	#232323;}.style2{fill:	#FFFFFF;}.style3{fill:	#484848;}.style4{fill:	#C5C5C5;}.style5{fill:	#959595;}</style><g><path d="M297.5 58.2c-4 0-7.1 1.5-9.4 3.8c-2.8-3.1-4.899-7.5-6.8-11.8c-3.3-7.3-7.2-15.4-14.899-16.6 C265.3 29.7 261.9 26 255.3 26h-6.6h-4.4c-8.6 0-14.9-3.9-19.8-7.2c-1.3-0.9-2.6-1.7-3.8-2.4c0.3-1 0.5-2.1 0.5-3.1 c0-5.3-3.8-10.8-12.7-10.8c-2.8 0-9.4 1.9-16.8 3.9c-9 2.5-19 5.3-23.9 5.3C158 11.7 152.9 6 152 0h-1c-0.9 6-6 11.7-15.8 11.7 c-4.9 0-14.9-2.8-23.9-5.3c-7.3-2-13.9-3.9-16.8-3.9c-8.9 0-12.7 5.5-12.7 10.8c0 1.1 0.2 2.1 0.5 3.2c-1.2 0.7-2.4 1.4-3.8 2.3 C73.6 22 67.4 26 58.8 26h-4.6h-6.4c-6.5 0-10 3.7-11.1 7.6c-7.7 1.2-11.6 9.3-14.9 16.5c-1.9 4.3-4 8.7-6.8 11.9 c-2.4-2.4-5.4-3.8-9.4-3.8c-3.7 0-5.5 2.2-5.5 4.5c0 2.3 1.9 4.5 5.5 4.5c4 0 7.1-1.5 9.4-3.8c2.8 3.1 4.9 7.5 6.8 11.8 c3.3 7.3 7.2 15.2 14.9 16.5c1.1 3.9 4.5 7.4 11.1 7.4h6.4h4.6c8.6 0 14.9 4.1 19.8 7.4c1.4 0.9 2.6 1.8 3.8 2.5 c-0.3 1-0.5 2.1-0.5 3.2c0 5.3 3.8 10.8 12.7 10.8c2.8 0 9.4-1.9 16.8-3.9c9-2.5 19-5.5 23.9-5.5c9.7 0 14.9 5.5 15.8 11.5h1.1 c0.9-6 6-11.5 15.8-11.5c4.9 0 14.9 2.8 23.9 5.4c7.3 2 13.9 3.9 16.8 3.9c8.9 0 12.7-5.5 12.7-10.8c0-1.1-0.2-2.1-0.5-3.2 c1.2-0.7 2.5-1.5 3.8-2.4c4.8-3.3 11.1-7.4 19.8-7.4h4.4h6.6c6.5 0 10-3.5 11.1-7.4c7.7-1.2 11.601-9.2 14.9-16.4 c1.9-4.2 4-8.7 6.8-11.8c2.4 2.3 5.4 3.8 9.4 3.8c3.7 0 5.5-2.2 5.5-4.5C303.2 60.5 301.1 58.2 297.5 58.2z M5.5 66.3 c-3.1 0-4.7-1.8-4.7-3.7s1.6-3.7 4.7-3.7c3.7 0 6.5 1.4 8.8 3.7C12 64.9 9.2 66.3 5.5 66.3z M265.9 36.5c0 3.4-1.9 6.4-5.301 6.4 c-2.3 0-3.5-1.5-3.5-3.3c0-2.4 2.2-5.2 7-5.2c0.5 0 1 0 1.5 0.1C265.8 35.2 265.9 35.8 265.9 36.5z M37.3 34.5c0.5 0 1-0.1 1.5-0.1 c4.8 0 7 2.8 7 5.2c0 1.8-1.2 3.3-3.5 3.3c-3.4 0-5.3-3.1-5.3-6.4C37.1 35.8 37.2 35.2 37.3 34.5z M37.1 88.9 c0-3.4 1.9-6.4 5.3-6.4c2.3 0 3.5 1.5 3.5 3.3c0 2.4-2.2 5.2-7 5.2c-0.5 0-1 0-1.5-0.1C37.2 90.2 37.1 89.5 37.1 88.9z M265.7 90.8 c-0.5 0-1 0.1-1.5 0.1c-4.8 0-7-2.8-7-5.2c0-1.8 1.2-3.3 3.5-3.3c3.399 0 5.3 3.1 5.3 6.4C265.9 89.5 265.8 90.2 265.7 90.8z M280.4 74.8c-3.301 7.3-6.601 14.6-13.9 15.9c0.1-0.6 0.2-1.2 0.2-1.9c0-3.8-2.2-7.3-6.101-7.3c-2.8 0-4.3 1.9-4.3 4.1 c0 2.8 2.5 6 7.8 6c0.5 0 0.9-0.1 1.301-0.1c-1.101 3.4-4.301 6.4-10.101 6.4h-6.6h-4.4c-9.2 0-15.2 4.2-20.3 7.6 c-1.3 0.9-2.4 1.7-3.6 2.4c-1.2-3.1-4-5.5-7.5-5.5c-2.6 0-4.2 2.1-4.2 4.2s1.6 4.3 5.5 4.3c2 0 3.9-0.7 5.8-1.8 c0.3 0.9 0.5 1.9 0.5 2.8c0 4.9-3.6 10-11.9 10c-2.5 0-9.3-1.9-16.5-3.9c-8.9-2.5-19.1-5.3-24.1-5.3c-9.6 0-14.9 5.2-16.3 11 c-1.4-5.8-6.8-11-16.3-11c-5 0-15.2 2.8-24.1 5.3c-7.2 2-14 3.9-16.5 3.9c-8.3 0-11.9-5.1-11.9-10c0-0.9 0.2-1.9 0.4-2.8 c1.9 1.1 3.8 1.8 5.8 1.8c3.9 0 5.5-2.1 5.5-4.2c0-2.1-1.7-4.2-4.2-4.2c-3.6 0-6.3 2.5-7.5 5.5c-1.2-0.7-2.4-1.6-3.6-2.4 C74 102.2 68 98 58.8 98h-4.6h-6.4c-5.8 0-9-3-10.1-6.4c0.4 0 0.8 0.1 1.3 0.1c5.4 0 7.8-3.2 7.8-6c0-2.2-1.5-4.1-4.3-4.1 c-3.9 0-6.1 3.5-6.1 7.3c0 0.6 0 1.2 0.2 1.9c-7.3-1.3-10.6-8.6-13.9-15.9c-2-4.5-4-9-6.9-12.1c2.9-3.2 4.9-7.6 6.9-12.1 c3.3-7.3 6.6-14.6 13.9-15.9c-0.1 0.6-0.2 1.2-0.2 1.9c0 3.8 2.2 7.3 6.1 7.3c2.8 0 4.3-1.9 4.3-4.1c0-2.8-2.5-6-7.8-6 c-0.5 0-0.9-0.1-1.3 0c1.1-3.4 4.3-6.6 10.1-6.6h6.4h4.6C68 27 74 23 79 19.5c1.2-0.9 2.4-1.6 3.6-2.3c1.3 3.1 4 5.6 7.5 5.6 c2.6 0 4.2-2.1 4.2-4.2s-1.6-4.2-5.5-4.2c-2 0-3.9 0.7-5.8 1.8c-0.2-0.9-0.4-1.9-0.4-2.8c0-4.9 3.6-10 11.9-10 c2.5 0 9.3 1.9 16.5 3.9c8.9 2.5 19.1 5.3 24.1 5.3c9.5 0 14.9-5.2 16.3-11c1.4 5.8 6.7 11 16.3 11c5 0 15.2-2.8 24.1-5.3 c7.2-2 14-3.9 16.5-3.9c8.3 0 11.9 5.1 11.9 10c0 0.9-0.2 1.9-0.5 2.8c-1.9-1.1-3.8-1.8-5.8-1.8c-3.9 0-5.5 2.1-5.5 4.3 c0 2.1 1.6 4.2 4.2 4.2c3.5 0 6.3-2.5 7.5-5.5c1.2 0.7 2.4 1.4 3.6 2.3C229 23 235 27 244.2 27h4.4h6.6c5.8 0 9 3.1 10.1 6.6 c-0.399 0-0.8 0-1.3 0c-5.4 0-7.8 3.2-7.8 6.1c0 2.2 1.5 4.1 4.3 4.1c3.9 0 6.1-3.5 6.1-7.3c0-0.6 0-1.2-0.199-1.9 c7.3 1.3 10.6 8.6 13.9 15.9c2 4.5 4 9 6.9 12.1C284.5 65.8 282.5 70.3 280.4 74.8z M219.7 108.5c-1.9 1-3.7 1.7-5.5 1.7 c-3.3 0-4.7-1.7-4.7-3.4c0-1.7 1.3-3.4 3.4-3.4C216.1 103.4 218.5 105.7 219.7 108.5z M83.3 108.5c1.1-2.8 3.5-5.1 6.8-5.1 c2.1 0 3.4 1.7 3.4 3.4c0 1.7-1.4 3.4-4.7 3.4C87 110.2 85.2 109.5 83.3 108.5z M83.3 16.8c1.9-1 3.6-1.7 5.5-1.7 c3.3 0 4.7 1.7 4.7 3.4s-1.3 3.4-3.4 3.4C86.9 21.9 84.5 19.6 83.3 16.8z M219.7 16.8c-1.2 2.8-3.6 5.1-6.8 5.1 c-2.1 0-3.4-1.7-3.4-3.4s1.4-3.4 4.7-3.4C216 15.1 217.8 15.8 219.7 16.8z M297.5 66.3c-3.7 0-6.5-1.4-8.8-3.7 c2.3-2.2 5.1-3.7 8.8-3.7c3.1 0 4.7 1.8 4.7 3.7S300.6 66.3 297.5 66.3z" class="style0"/><path d="M83.1 42c0 0.8-0.1 1.6-0.1 2.3c0 0.7 0.1 1.4 0.1 2.1c0 0.3-0.5 0.3-0.6 0.1c-0.2-0.2-0.1-0.8 0-1 c0.1-0.9 0.1-1.9-0.5-2.6c-0.6-0.7-1.4-0.7-2.2-0.7c-0.8 0-0.7 0.7-0.7 1.4c0 1.6 0 3.2-0.1 4.8c0 2-0.1 4 0 6c0 0.6 0 1.9 0.7 2 c0.4 0.1 1.9-0.5 1.9 0.1c0 0.7-1.2 0.4-1.6 0.3c-0.9 0-1.7-0.1-2.6-0.1c-1.6 0-3.3 0-4.9 0c-0.4 0-2.2 0.4-2.2-0.3 c0-0.8 2-0.1 2.4-0.2c0.6-0.2 0.5-1.6 0.5-2.2c0.1-1.1 0.1-2.2 0.1-3.3c0.1-2.3 0.1-4.6 0-6.9c0-0.7 0.2-1.8-0.7-1.7 c-1 0-2 0.2-2.6 1.1c-0.4 0.8-0.5 1.8-0.4 2.7c0 0.5-0.6 0.8-0.6 0.3c0-0.4 0.1-0.8 0.1-1.2c0.1-1 0-2.1 0-3.1 c0-0.7 1.3-0.4 1.8-0.3c2 0.1 4.1 0.1 6.1 0.1c1 0 2.1 0 3.1 0C80.5 41.9 83.1 41.6 83.1 42z" class="style1"/><path d="M107.8 42.1c0 0.7-0.9 0.1-1.1 0.2c-0.4 0.2-0.6 0.9-0.7 1.2c-0.6 1.3-1 2.7-1.5 4.1 c-0.6 1.7-1.2 3.5-1.8 5.2c-0.2 0.5-0.7 4.1-1.4 4.1c-0.7 0-1.4-0.2-2.1-0.1c-1.1 0.1-1-0.3-1.2-1.2c-0.2-0.8-0.4-1.5-0.6-2.3 c-0.4-1.5-0.8-3.1-1.2-4.6c0-0.1-0.4-1.5-0.5-1.3c-0.4 0.4-0.5 1.2-0.7 1.7c-0.5 1.5-1 3-1.5 4.5c-0.2 0.5-0.5 3.4-1.3 3.3 c-0.7-0.1-1.4-0.1-2.2 0c-0.2 0-0.6 0.2-0.7-0.1c0-0.4-0.1-0.7-0.1-1.1c-0.5-3.3-1.4-6.6-2.1-9.9c-0.1-0.7-0.5-3.6-1.4-3.6 c-0.2 0-2 0.6-1.4-0.3c0.2-0.3 1.5-0.1 1.8-0.1c1.4 0.1 2.8 0.1 4.3 0c0.6 0 3.6-0.5 3.6 0.3c0 0.7-1.3-0.1-1.7 0.1 c-0.3 0.2 0 1.3 0.1 1.6c0.1 0.6 0.3 1.2 0.4 1.8c0.3 1.4 0.6 2.8 0.9 4.3c0.1 0.6 0.3 0.7 0.5 0.1c0.2-0.6 0.4-1.2 0.6-1.8 c0.5-1.5 1.1-2.9 1.5-4.5c0.2-0.6 0.4-1.1 0.5-1.7c0-0.3 0.9-0.1 1.2-0.1c0.7 0 2-0.4 2.2 0.4c0.7 2.6 1.4 5.3 2.1 7.9 c0.2 0.6 0.3 0.7 0.6 0.1c0.3-0.7 0.5-1.4 0.8-2.1c0.6-1.6 1.1-3.2 1.4-5c0.1-0.9-0.1-1.1-0.9-0.9c-0.5 0.1-1-0.7-0.4-0.7 C104.2 41.8 107.8 41.6 107.8 42.1z" class="style1"/><path d="M124.1 48.5c0 2.3-0.2 4.7-1.8 6.4c-1.6 1.8-4.1 2.2-6.4 2.2c-2.2 0-4.6-0.3-6.3-1.8 c-1.8-1.6-2.1-4.1-2-6.4c0-2.1 0.5-4.3 2-5.8c1.5-1.6 3.8-1.8 5.9-1.8s4.7 0.1 6.5 1.4C123.7 44.1 124.1 46.4 124.1 48.5z M117.9 49.2c0-1.5 0-3.1-0.1-4.6c-0.1-1.2-0.4-2.8-2-2.8c-1.6 0-1.8 1.8-1.8 3c-0.1 1.6-0.1 3.3-0.1 4.9c0 1.3 0 2.7 0.1 4 c0.1 1.2 0.2 2.7 1.6 2.9C118.6 57.1 117.9 50.9 117.9 49.2z" class="style1"/><path d="M153.6 56.4c0 0.9-1.1 0.5-1.8 0.5c-1.4-0.1-2.9-0.1-4.3 0c-0.6 0-1.1 0-1.7 0c-0.3 0-0.9 0.1-1.2 0 c-0.2-0.1-0.4-0.5-0.1-0.6c0.2-0.2 0.6 0 0.8 0c0.6 0.2 1.2 0.2 1.2-0.6c-0.1-1.4-0.5-2.8-0.7-4.1c-0.1-0.6 0-1.1-0.7-1.1 c-0.7 0-1.4 0-2.1 0c-0.4 0-1.1-0.1-1.3 0.2c-0.3 0.2-0.4 1-0.5 1.3c-0.3 1.1-1.1 3.1-0.7 4.2c0.2 0.4 0.8 0 1.1 0 c0.5 0 0.3 0.7-0.1 0.7c-1.3 0-2.6-0.1-3.9 0c-0.4 0-0.4-0.8 0-0.7c0.7 0.2 0.8 0.2 1.3-0.4c0.7-1.1 1.1-2.3 1.6-3.5 c1.1-2.7 2.1-5.3 2.9-8.1c0.3-0.9 0.9-2.1-0.5-1.9c-0.4 0.1-1.3 0.3-1.6 0c-0.4-0.5 0.2-0.6 0.5-0.5c2.5 0.2 5 0.2 7.5 0.1 c0.3 0 1.3-0.2 1.5 0.1c0.3 0.7-0.6 0.5-0.9 0.4c-0.6-0.2-0.2 1.2-0.1 1.5c0.4 2.2 0.9 4.4 1.3 6.7c0.3 1.4 0.6 2.8 0.9 4.2 c0.1 0.5 0.2 1 0.4 1.4C152.6 56.6 153.6 56.1 153.6 56.4z M145.4 49.8c-0.3-1.5-0.6-3.1-0.9-4.6c0-0.2-0.2-1.4-0.4-1.4 c-0.3 0-0.8 1.8-0.8 2c-0.5 1.2-1 2.5-1.3 3.7C141.8 50.1 145.4 50.2 145.4 49.8C145.4 49.6 145.4 49.9 145.4 49.8z" class="style1"/><path d="M172 45.4c0 2.6-1.5 4.5-4.1 4.7c-1.3 0.1-2.7 0-4.1 0c-0.7 0-0.6 0.3-0.6 0.9c0 0.5 0 1 0 1.4 c0 0.8-0.3 3.3 0.7 3.7c0.5 0.2 1.1 0 1.5 0c0.3 0 1.4 0 0.8 0.5c-0.5 0.5-2 0.1-2.6 0.1c-2.7 0-5.4 0-8.1 0.1 c-0.6 0-0.8-0.7-0.2-0.7c0.5 0 1 0.4 1.6 0.1c0.9-0.4 0.6-2.3 0.7-3.1c0.1-2.4 0.1-4.8 0.1-7.2c0-0.9 0.4-3-0.4-3.7 c-0.3-0.3-0.9-0.1-1.3-0.1c-0.2 0-0.5 0.1-0.8 0.1c-0.2-0.1-0.5-0.4-0.2-0.6c0.4-0.2 1.3 0 1.7 0c0.6 0 1.2 0.1 1.7 0.1 c1.5 0 3 0 4.5 0c2.3-0.1 5.5-0.8 7.6 0.5C171.7 43 172 44.2 172 45.4z M166.3 45.6c0-1.6-0.2-3.5-2.2-3.5c-1.2 0-0.9 1.3-0.9 2.3 c0 1.7 0 3.4 0 5c0 0.9 2.1 0 2.4-0.4C166.4 48.1 166.3 46.7 166.3 45.6z" class="style1"/><path d="M190 45.4c0 2.6-1.5 4.5-4.1 4.7c-1.3 0.1-2.7 0-4.1 0c-0.7 0-0.6 0.3-0.6 0.9c0 0.5 0 1 0 1.4 c0 0.8-0.3 3.3 0.7 3.7c0.5 0.2 1.1 0 1.5 0c0.3 0 1.4 0 0.8 0.5c-0.5 0.5-2 0.1-2.6 0.1c-2.7 0-5.4 0-8.1 0.1 c-0.6 0-0.8-0.7-0.2-0.7c0.5 0 1 0.4 1.6 0.1c0.9-0.4 0.6-2.3 0.7-3.1c0.1-2.4 0.1-4.8 0.1-7.2c0-0.9 0.4-3-0.4-3.7 c-0.3-0.3-0.9-0.1-1.3-0.1c-0.2 0-0.5 0.1-0.8 0.1c-0.2-0.1-0.5-0.4-0.2-0.6c0.4-0.2 1.3 0 1.7 0c0.6 0 1.2 0.1 1.7 0.1 c1.5 0 3 0 4.5 0c2.3-0.1 5.5-0.8 7.6 0.5C189.6 43 190 44.2 190 45.4z M184.3 45.6c0-1.6-0.2-3.5-2.2-3.5c-1.2 0-0.9 1.3-0.9 2.3 c0 1.7 0 3.4 0 5c0 0.9 2.1 0 2.4-0.4C184.3 48.1 184.3 46.7 184.3 45.6z" class="style1"/><path d="M204.7 50.6c0 1.1-0.3 2.2-0.3 3.3c0 0.9 0.6 2.9-0.5 3.1c-0.8 0.2-1.9 0-2.7 0c-1.3 0-2.6-0.1-3.9-0.1 c-1.4 0-2.8 0-4.2 0.1c-0.6 0-1.5 0.2-2.1 0c-0.2 0-0.3-0.2-0.3-0.4c0-0.4 0.5-0.3 0.7-0.3c1 0.2 2.1 0.5 2.3-0.8 c0.1-0.8 0.1-1.7 0.1-2.5c0.1-2.4 0.1-4.9 0.1-7.3c0-0.7 0.4-3.1-0.6-3.5c-0.6-0.2-1.2 0.3-1.8 0.1c-0.5-0.2-0.4-0.7 0.1-0.7 c2.5 0.2 4.9 0.2 7.4 0.1c0.9 0 1.9-0.1 2.8-0.2c0.5 0 0.5 0.6 0.1 0.7c-0.6 0.2-1.2-0.3-1.8-0.1c-0.9 0.3-0.6 2.1-0.6 2.7 c0 1.3 0 2.6 0 3.8c0 2 0.1 4.1 0.1 6.1c0 0.9-0.1 1.5 1 1.5s2-0.1 2.6-1.1c0.6-1 0.6-2.2 0.6-3.3c0-0.5 0-0.9 0-1.4 C203.9 50 204.7 50 204.7 50.6z" class="style1"/><path d="M220.3 51.7c-0.2 1.2-0.3 2.4-0.3 3.6c0 0.4 0.2 1.3 0 1.6c-0.3 0.4-1.3 0.2-1.7 0.2 c-2.7-0.1-5.4-0.1-8.2-0.1c-0.5 0-3.7 0.4-3.9 0c-0.4-0.6 0.4-0.6 0.8-0.5c0.6 0.2 1.2 0.2 1.5-0.5s0.2-1.6 0.2-2.3 c0-1.2 0.1-2.3 0.1-3.5c0-1.2 0-2.5 0-3.7c0-0.7 0-1.5 0-2.2c0-0.5 0.1-1.4-0.4-1.8S206 43 206 42.1c0-0.5 3.2-0.1 3.7-0.1 c2.8 0.1 5.5 0.1 8.3 0c0.5 0 1 0 1.5 0c0.6 0 0.2 0.7 0.2 1.1c-0.1 0.6-0.1 1.3-0.1 2c0 0.3 0.3 1.5-0.4 1c-0.3-0.2-0.1-0.9 0-1.1 c0.1-0.4 0-0.8-0.2-1.1c-0.5-1.3-1.5-1.2-2.7-1.2c-0.9 0-1.8-0.2-1.9 1c0 1-0.1 1.9-0.1 2.9c0 0.6 0 1.2 0 1.8 c0 0.7 0.2 0.7 0.9 0.7c1.4 0 1.8-1.2 1.6-2.4c0-0.3 0.2-0.5 0.4-0.5c0.6 0 0.2 0.8 0.1 1.1c-0.2 1.1-0.2 2.1-0.1 3.2 c0.1 0.4 0.2 0.8 0.2 1.1c0 0.4-0.7 0.4-0.7 0c0-1 0.2-1.8-1.1-2c-0.3-0.1-1.2-0.2-1.3 0.2c-0.1 0.5-0.1 1-0.1 1.5 c0 1.2 0 2.3 0 3.5c0 0.5-0.2 1.9 0.5 2c1 0.1 2.3 0.2 3.2-0.2c1-0.5 1.3-1.6 1.4-2.6c0.1-0.6 0-1.1 0-1.7 C219.6 51.3 220.4 51.3 220.3 51.7C220.3 51.9 220.4 51.5 220.3 51.7z" class="style1"/><path d="M234 51.1c0 2.7-1.7 4.9-4.2 5.7c-1.3 0.4-2.7 0.4-4 0.2c-0.6-0.1-1.1-0.2-1.7-0.3c-0.3 0-0.6-0.1-0.8-0.1 c-0.2 0-0.6 0.5-0.7 0.2c-0.2-0.3 0.1-1.2 0.2-1.5c0-0.6 0-1.3 0-1.9c0-0.4-0.2-1-0.1-1.4c0.1-0.2 0.5-0.1 0.6 0 c0.2 0.2 0.1 0.5 0.1 0.8c-0.2 1.2-0.1 2.2 1 3c1.1 0.8 2.6 1.3 4 0.9c1.2-0.3 2.1-1.3 1.9-2.6c-0.1-1.3-1.3-1.8-2.4-2.1 c-1.3-0.3-2.7-0.4-3.9-1c-1.3-0.7-2-2.3-2.1-3.7c-0.2-2.7 1.6-5.1 4.3-5.7c1.2-0.3 2.5-0.2 3.7 0c0.6 0.1 1.2 0.3 1.8 0.4 c0.4 0.1 1.3-0.2 1.2 0.3c-0.2 1.1-0.5 2.3-0.3 3.4c0.1 0.5-0.2 0.6-0.6 0.3c-0.2-0.2 0.1-1.1 0.2-1.3c0.2-2.5-4.3-3.3-6-2.3 c-1 0.6-1.5 2-0.7 2.9c0.8 1 2.3 1.1 3.4 1.3C231.3 46.9 234 47.9 234 51.1z" class="style1"/><path d="M70.3 69c0 0.9-0.2 1.8-0.1 2.6c0 0.5 0.3 1.5 0.1 2c-0.1 0.2-0.6 0-0.7-0.2c-0.1-0.3 0-0.6 0-0.9 c0.1-0.9 0.1-1.9-0.5-2.6c-0.6-0.7-1.4-0.7-2.2-0.7c-0.8 0-0.7 0.7-0.7 1.3c0 1.6 0 3.2-0.1 4.8c0 2-0.1 4 0 6c0 0.6 0 1.9 0.7 2 c0.4 0.1 1.9-0.5 1.9 0.1s-1.2 0.4-1.6 0.3c-0.9 0-1.7-0.1-2.6-0.1c-1.6 0-3.3 0-4.9 0c-0.4 0-2 0.4-2.2-0.1 c-0.3-0.9 1.8-0.3 2.2-0.3c1.1 0 0.9-4.4 0.9-5.2c0.1-2.4 0.1-4.8 0-7.2c0-0.7 0.2-1.8-0.7-1.7c-1 0-2 0.2-2.6 1.1 c-0.4 0.8-0.5 1.8-0.4 2.7c0 0.2-0.3 0.9-0.5 0.5c-0.2-0.3 0-0.9 0-1.2c0.1-1 0.1-2.1 0-3.1c0-0.3-0.1-0.6 0.3-0.6s0.8 0 1.2 0 c2.1 0.1 4.3 0.1 6.4 0.1c1 0 2.1 0 3.1 0C67.7 68.8 70.3 68.5 70.3 69z" class="style1"/><path d="M95 69c0 0.7-0.9 0.1-1.1 0.2c-0.4 0.2-0.6 0.9-0.7 1.2c-0.6 1.3-1 2.7-1.5 4.1c-0.6 1.6-1.2 3.3-1.7 4.9 c-0.2 0.6-0.8 4.4-1.4 4.4c-0.7 0-1.4-0.2-2.1-0.1c-1.1 0.1-1-0.3-1.2-1.2c-0.2-0.8-0.4-1.5-0.6-2.3c-0.4-1.5-0.8-3-1.2-4.6 c0-0.1-0.4-1.5-0.5-1.3c-0.4 0.4-0.5 1.2-0.7 1.7c-0.5 1.5-1 3-1.5 4.5c-0.2 0.5-0.5 3.4-1.3 3.3c-0.7-0.1-1.4-0.1-2.2 0 c-0.2 0-0.6 0.2-0.7-0.1c0-0.4-0.1-0.7-0.1-1.1c-0.5-3.3-1.4-6.6-2.1-9.9c-0.1-0.7-0.5-3.6-1.4-3.6c-0.2 0-2 0.6-1.4-0.3 c0.2-0.3 1.5-0.1 1.8-0.1c1.4 0.1 2.8 0.1 4.3 0c0.6 0 3.6-0.5 3.6 0.3c0 0.7-1.3-0.1-1.7 0.1c-0.3 0.2 0 1.3 0 1.6 c0.1 0.6 0.3 1.2 0.4 1.8c0.3 1.4 0.6 2.8 0.9 4.3c0.1 0.6 0.3 0.7 0.5 0.1c0.2-0.6 0.4-1.2 0.6-1.8c0.5-1.5 1.1-2.9 1.5-4.5 c0.2-0.6 0.4-1.1 0.5-1.7c0-0.3 0.9-0.1 1.2-0.1c0.7 0 2-0.4 2.2 0.5c0.7 2.7 1.4 5.3 2.1 7.9c0.2 0.6 0.3 0.7 0.6 0.1 c0.3-0.7 0.5-1.4 0.8-2.1c0.6-1.6 1.1-3.3 1.4-5c0.1-0.9-0.1-1-0.9-0.9c-0.6 0.1-0.9-0.7-0.4-0.7C91.4 68.7 95 68.5 95 69z" class="style1"/><path d="M110.4 78.6c-0.3 1.2-0.3 2.4-0.3 3.6c0 0.4 0.2 1.3 0 1.6c-0.3 0.4-1.3 0.2-1.7 0.2 c-2.7-0.1-5.4-0.1-8.2-0.1c-0.7 0-1.4 0-2.1 0c-0.3 0-1.7 0.3-1.8 0c-0.3-0.6 0.4-0.6 0.8-0.5c0.6 0.2 1.2 0.2 1.5-0.5 c0.3-0.7 0.2-1.6 0.2-2.3c0-1.2 0.1-2.3 0.1-3.5c0-1.2 0-2.5 0-3.7c0-0.7 0-1.5 0-2.2c0-0.5 0.1-1.4-0.4-1.8s-2.4 0.5-2.4-0.4 c0-0.5 3.2-0.1 3.7-0.1c2.8 0.1 5.5 0.1 8.3 0c0.5 0 1 0 1.5 0c0.6 0 0.2 0.7 0.2 1.1c-0.1 0.6-0.1 1.2-0.1 1.8 c0 0.3 0.4 1.3-0.1 1.3c-0.7 0-0.2-1.6-0.4-2.1c-0.4-1.3-1.3-1.5-2.5-1.5c-0.8 0-2.1-0.3-2.1 0.9c0 0.9-0.1 1.8-0.1 2.7 c0 0.6 0 1.1 0 1.7c0 0.6-0.1 1.1 0.6 1.1c1.4 0 2.2-0.8 2-2.2c0-0.3 0-0.5 0.3-0.6c0.6-0.3 0.4 0.5 0.4 0.8 c-0.2 1.1-0.3 2.2-0.2 3.3c0.1 0.4 0.2 0.8 0.2 1.2c0.1 0.5-0.7 0.7-0.7 0.1c0-0.3 0.1-0.7 0.1-1.1c0-0.7-0.9-1-1.4-1 s-1.1-0.2-1.1 0.4c-0.1 0.5 0 1 0 1.6c0 1.1 0 2.2 0 3.4c0 0.8-0.2 1.7 0.8 1.8s2.3 0.2 3.2-0.4c0.9-0.6 1.1-1.8 1.2-2.8 c0-0.5-0.1-1.1 0-1.5C109.7 78.2 110.4 78.2 110.4 78.6C110.3 78.8 110.4 78.5 110.4 78.6z" class="style1"/><path d="M125.7 77.5c0 1.1-0.3 2.2-0.3 3.3c0 0.9 0.6 2.9-0.5 3.1c-0.8 0.2-1.9 0-2.7 0c-1.3 0-2.6-0.1-3.9-0.1 c-1.4 0-2.8 0-4.2 0.1c-0.6 0-1.5 0.2-2.1 0c-0.2 0-0.3-0.2-0.3-0.4c0-0.4 0.5-0.3 0.7-0.3c1 0.2 2.1 0.5 2.3-0.8 c0.1-0.8 0.1-1.7 0.1-2.5c0.1-2.4 0.1-4.9 0.1-7.3c0-0.7 0.4-3.2-0.6-3.5c-0.6-0.2-1.2 0.3-1.8 0.1c-0.5-0.2-0.4-0.7 0.1-0.7 c2.5 0.1 4.9 0.2 7.4 0.1c0.9 0 1.9-0.1 2.8-0.1c0.5 0 0.5 0.5 0.1 0.7c-0.6 0.2-1.2-0.3-1.8-0.1c-0.9 0.3-0.6 2.1-0.6 2.7 c0 1.3 0 2.6 0 3.8c0 2 0.1 4.1 0.1 6.1c0 0.8-0.1 1.5 1 1.5s2-0.1 2.6-1.1c0.6-1 0.6-2.2 0.6-3.3c0-0.5 0-0.9 0-1.4 C124.9 76.9 125.7 76.9 125.7 77.5z" class="style1"/><path d="M141.2 69c0 0.8-0.7 0.1-1 0.3c-0.2 0.1-0.3 0.3-0.4 0.5c-0.5 1-0.9 2-1.3 3.1c-0.9 2.3-1.6 4.6-2.3 7 c-0.4 1.2-0.6 2.5-1 3.7c-0.2 0.6-2.4 0.3-3 0.3c-0.6 0-0.8-2.2-1-2.7c-0.4-1.4-0.7-2.8-1.1-4.2c-0.6-2.4-1.1-4.9-2.1-7.1 c-0.3-0.6-0.6-0.7-1.2-0.5c-0.2 0.1-0.5 0.3-0.7 0c-0.2-0.2-0.1-0.6 0.3-0.6c1.4 0.1 2.8 0.1 4.2 0.1s2.8-0.1 4.2-0.1 c0.2 0 0.7-0.1 0.8 0.1c0.2 0.1 0.1 0.5-0.2 0.5c-0.4 0-1.3-0.6-1.6-0.1c-0.2 0.3 0.1 1 0.2 1.3c0.2 0.7 0.4 1.4 0.5 2 c0.4 1.4 0.7 2.7 1.1 4.1c0.1 0.2 0.3 1.6 0.6 0.8c0.4-0.9 0.7-1.7 1-2.6c0.5-1.5 1-3.1 1.2-4.6c0.1-0.7 0.1-1.2-0.7-1 c-0.7 0.3-1.2-0.6-0.7-0.6S141.2 68.5 141.2 69z" class="style1"/><path d="M156.5 78.6c-0.2 1.2-0.3 2.4-0.3 3.6c0 0.4 0.2 1.3 0 1.6c-0.3 0.4-1.3 0.2-1.7 0.2 c-2.7-0.1-5.4-0.1-8.2-0.1c-0.5 0-3.7 0.4-3.9 0c-0.4-0.6 0.4-0.6 0.8-0.5c0.6 0.2 1.2 0.2 1.5-0.5c0.3-0.7 0.2-1.6 0.2-2.3 c0-1.2 0.1-2.3 0.1-3.5c0-1.2 0-2.5 0-3.7c0-0.7 0-1.5 0-2.2c0-0.5 0.1-1.4-0.4-1.8s-2.4 0.5-2.4-0.4c0-0.5 3.2-0.1 3.7-0.1 c2.8 0.1 5.5 0.1 8.3 0c0.5 0 1 0 1.5 0c0.6 0 0.2 0.7 0.2 1.1c-0.1 0.6-0.1 1.3-0.1 2c0 0.3 0.3 1.5-0.4 1c-0.3-0.2-0.1-0.9 0-1.1 c0.1-0.4 0-0.8-0.2-1.1c-0.5-1.3-1.5-1.2-2.7-1.2c-0.9 0-1.8-0.2-1.9 1c0 1-0.1 1.9-0.1 2.9c0 0.6 0 1.2 0 1.8 c0 0.7 0.2 0.7 0.9 0.7c1.4 0 1.8-1.2 1.6-2.4c0-0.3 0.2-0.5 0.4-0.5c0.6 0 0.2 0.8 0.1 1.1c-0.2 1.1-0.2 2.1-0.1 3.2 c0.1 0.4 0.2 0.8 0.2 1.1c0 0.5-0.8 0.4-0.7-0.1c0.2-1.1-0.1-1.9-1.4-1.9c-0.5 0-1.1-0.2-1.1 0.4c-0.1 0.5 0 1 0 1.6 c0 1.1 0 2.2 0 3.4c0 0.8-0.2 1.7 0.8 1.8c1 0.1 2.3 0.2 3.2-0.4c0.9-0.6 1.1-1.8 1.2-2.8c0-0.5-0.1-1.1 0-1.5 C155.9 78.2 156.6 78.2 156.5 78.6C156.5 78.8 156.5 78.5 156.5 78.6z" class="style1"/><path d="M185.8 83.3c0 0.9-1.1 0.5-1.8 0.5c-1.4-0.1-2.9-0.1-4.3 0c-0.6 0-1.1 0-1.7 0c-0.3 0-0.9 0.1-1.2 0 c-0.2-0.1-0.3-0.5-0.1-0.6c0.2-0.2 0.6 0 0.8 0c0.9 0.3 1.2 0 1.1-1c-0.1-1.4-0.5-2.8-0.8-4.1c-0.1-0.7-0.2-0.7-0.9-0.7 c-0.7 0-1.4 0-2.2 0c-0.3 0-1 0-1.1 0.3c-0.2 0.5-0.4 1-0.5 1.5c-0.2 0.7-1.2 3.5-0.5 4c0.3 0.2 0.8-0.3 1.2 0 c0.6 0.4-0.5 0.6-0.6 0.6c-1.2 0-2.5 0-3.7 0c-0.2 0-0.4-1 0.4-0.6c0.5 0.2 0.9-0.3 1.1-0.7c0.7-1.1 1.1-2.4 1.6-3.6 c1-2.6 2.1-5.3 2.9-8c0.1-0.4 0.3-0.9 0.3-1.4s-0.9-0.3-1.2-0.2c-0.4 0.1-1.2 0.3-1.4-0.2c-0.3-0.6 0.6-0.4 0.9-0.4 c2.5 0.2 5 0.2 7.6 0.1c0.3 0 1.2-0.2 1.2 0.3c0 0.6-0.7 0.2-1 0.2c-0.4 0 0 1.5 0 1.7c0.4 2.3 0.9 4.5 1.4 6.7 c0.3 1.4 0.6 2.7 0.9 4.1c0.1 0.4 0.2 1 0.5 1.4C184.8 83.5 185.8 82.9 185.8 83.3z M177.6 76.8c-0.3-1.5-0.6-3.1-0.9-4.6 c0-0.2-0.2-1.4-0.4-1.4c-0.3 0-0.8 1.8-0.8 2c-0.5 1.2-1 2.5-1.3 3.7C174 77.1 177.6 77.1 177.6 76.8 C177.5 76.5 177.6 76.8 177.6 76.8z" class="style1"/><path d="M198.3 80.5c0 2.9-3.1 3.6-5.4 3.5c-2.6-0.1-5.2-0.9-6.3-3.4c-1-2.3-1-5.7-0.2-8.1c0.7-2.2 2.5-3.6 4.7-4 c1.3-0.3 2.6-0.2 3.9-0.1c0.6 0.1 1.1 0.1 1.7 0.2c0.3 0 0.6 0.1 0.8 0s0.4-0.3 0.6-0.2c0 0-0.5 2.6-0.5 2.9c0 0.6 0 1.2 0.1 1.8 c0.1 0.6-0.8 0.8-0.8 0.4c0-1.2 0.4-2.2-0.2-3.3c-0.6-1.1-2-1.7-3.1-1.2c-1.1 0.4-1.3 1.9-1.4 2.9c-0.2 1.5-0.2 3-0.2 4.5 c0 1.4 0 2.8 0.2 4.1c0.1 1.1 0.5 2.4 1.7 2.8c1.2 0.4 2.4-0.1 3-1.2c0.2-0.5 0.3-1 0.4-1.6C197.6 79.9 198.3 79.9 198.3 80.5z" class="style1"/><path d="M218.1 83.6c0 0.5-3.3 0.1-3.7 0.1c-0.9 0-2.4 0.4-3.2-0.2c-1.1-0.8-0.7-3.4-0.7-4.6c0-0.8 0-1.9-0.8-2.5 c-0.4-0.3-2.1-0.9-2.1 0c0 1 0 2.1 0 3.1c0 1.1-0.1 2.4 0.2 3.4c0.2 0.6 0.9 0.3 1.3 0.2c0.7-0.1 0.8 0.8 0.1 0.7 c-2.6-0.4-5.3-0.3-7.9-0.1c-0.4 0-2.5 0.4-2.1-0.5c0.3-0.8 2.3 0.8 2.6-0.9c0.2-1.2 0.1-2.4 0.1-3.6c0-1.5 0-2.9 0-4.4 c0-1.2 0-2.5-0.1-3.7c0-0.4-0.1-1-0.4-1.4c-0.4-0.5-1.2 0-1.6 0c-0.4 0-0.9-0.8-0.3-0.8c0.4 0 0.8 0 1.2 0.1c1.3 0.1 2.6 0.1 4 0.1 c2.9 0 5.8-0.4 8.7-0.1c3.1 0.3 3.6 4.5 1.3 6.2c-0.5 0.4-1.2 0.6-1.9 0.6c-0.4 0-0.8 0-1.2 0c0 0-0.7 0.1-0.4 0.3 c0.8 0.3 1.8 0.1 2.6 0.3c0.7 0.2 1.4 0.6 1.8 1.2c0.7 1.2 0.4 2.9 0.4 4.2c0 0.4-0.1 1.7 0.5 1.7 C217.2 83.3 218.1 82.8 218.1 83.6z M210.7 72.2c0-1.3-0.2-2.7-1.7-2.9c-0.6-0.1-1.2-0.2-1.3 0.5c0 0.4 0 0.8 0 1.1 c0 1.3 0 2.6 0 3.9c0 0.3-0.1 0.9 0.3 0.9c0.6 0 1.1 0 1.6-0.3C210.7 74.6 210.7 73.3 210.7 72.2z" class="style1"/><path d="M233.1 78.6c-0.3 1.2-0.3 2.4-0.3 3.6c0 0.4 0.2 1.3 0 1.6c-0.3 0.4-1.3 0.2-1.7 0.2 c-2.7-0.1-5.4-0.1-8.1-0.1c-1.2 0-2.5 0-3.7 0.1c-0.4 0-0.4-0.8 0.3-0.7c0.5 0.1 1.3 0.4 1.7-0.2c0.4-0.6 0.3-1.5 0.3-2.3 c0-1.2 0.1-2.3 0.1-3.5c0-1.2 0-2.4 0-3.6c0-0.7 0-1.5 0-2.2c0-0.6 0.1-1.5-0.2-2c-0.5-0.9-2 0.4-2.5-0.4c-0.3-0.6 0.9-0.4 1.1-0.4 c0.7 0 1.4 0.1 2.2 0.1c2.8 0.1 5.5 0.1 8.3 0c0.6 0 1.1 0 1.7 0c0.6 0 0.5 0.2 0.4 0.8c-0.1 0.6-0.2 1.2-0.1 1.8 c0 0.3 0.3 1.2 0.1 1.4c-0.8 0.7-0.5-1.6-0.5-1.8c-0.3-1.2-1.1-1.6-2.2-1.6c-0.6 0-2.3-0.3-2.5 0.6c-0.1 0.9-0.1 1.8-0.1 2.7 c0 0.5-0.3 2.9 0.2 3c1.1 0.3 2.4-0.3 2.4-1.6c0-0.3-0.2-0.7 0-1c0.2-0.3 0.8-0.4 0.7 0.1c-0.2 1-0.4 2-0.3 3.1 c0 0.5 0.1 0.9 0.2 1.3c0.1 0.3 0.1 1.4-0.6 0.8c-0.2-0.2 0-0.8 0-1c0-0.7-0.4-1.1-1.1-1.2c-0.3-0.1-1.3-0.3-1.4 0.1 c-0.1 0.5-0.1 1-0.1 1.5c0 1.2 0 2.3 0 3.5c0 0.5-0.2 1.9 0.5 2c1 0.1 2.3 0.2 3.2-0.2c1-0.5 1.3-1.6 1.4-2.6c0.1-0.6 0-1.1 0-1.7 C232.4 78.2 233.2 78.2 233.1 78.6C233.1 78.8 233.1 78.5 233.1 78.6z" class="style1"/><path d="M246.8 78c0 2.8-1.9 5.1-4.6 5.8c-1.3 0.3-2.7 0.3-4 0.1c-0.6-0.1-1.1-0.2-1.7-0.3c-0.3 0-0.5-0.1-0.8 0.1 c-0.1 0.1-0.6 0.4-0.5 0c0.3-1.1 0.3-2.4 0.1-3.5c0-0.2-0.3-1 0-1.2c0.6-0.5 0.7 0.6 0.6 0.8c-0.2 1.2-0.1 2.2 1 3 c1.1 0.8 2.6 1.3 4 0.9c1.2-0.3 2.1-1.3 1.9-2.6c-0.1-1.3-1.3-1.8-2.4-2.1c-1.3-0.3-2.7-0.4-3.9-1c-1.3-0.7-1.9-2.1-2.1-3.5 c-0.3-2.7 1.3-5.1 3.9-5.8c1.2-0.3 2.4-0.3 3.6-0.1c0.7 0.1 1.3 0.2 1.9 0.4c0.3 0.1 1.4 0 1.4 0.2c0 1.1-0.4 2.2-0.3 3.3 c0 0.4 0.2 0.8-0.4 0.6c-0.5-0.2-0.2-0.8-0.1-1.2c0.4-2.6-3.9-3.6-5.7-2.7c-1.1 0.5-1.7 1.8-1 2.8c0.7 1.2 2.4 1.3 3.5 1.5 C244 73.8 246.8 74.8 246.8 78z" class="style1"/></g><g><path d="M64.2 201c0 2.3-0.4 4.6-0.4 6.9c0 1.4 0.8 3.8 0.2 5.1c-0.3 0.6-1.7 0-1.8-0.5c-0.3-0.7 0-1.6 0.1-2.4 c0.2-2.6 0.1-5.4-2-7.2c-1.6-1.4-4.1-1.3-6-1.1c-1.7 0.2-1.3 2.6-1.4 3.8c0 4.3-0.1 8.5-0.1 12.8c0 5-0.2 10 0.1 14.9 c0.1 1.2-0.1 4.5 1.4 5c1.1 0.4 5.5-1.2 5.5 0.5c0 1.7-3.2 0.9-4.3 0.9c-2.1-0.1-4.2-0.2-6.3-0.2c-4.6-0.1-9.2 0-13.8 0 c-1.1 0-6 1.1-6-0.8c0-2 5.2-0.2 6.5-0.5c1.7-0.5 1.4-4.2 1.5-5.6c0.2-2.8 0.3-5.5 0.4-8.3c0.2-6 0.3-12 0.1-18 c0-0.9 0.3-4.5-1-4.5c-2.8 0-6.2 0.1-7.7 2.9c-1.3 2.4-1.1 5.2-1.1 7.8c0 0.9-1.6 1-1.6-0.1s0.2-2.1 0.3-3.2c0.2-2.7 0-5.4-0.1-8.1 c-0.1-1.8 4.3-0.9 5.6-0.8c5.2 0.2 10.4 0.2 15.6 0.2c2.6 0 5.2 0 7.8 0C56.8 200.5 64.2 199.9 64.2 201z" class="style1"/><path d="M106.5 238.4c0 2.5-2.9 1.3-4.6 1.2c-3.5-0.2-7-0.2-10.5-0.1c-2.7 0-5.3 0.1-8 0.2c-0.8 0-1.7-0.1-1.7-1.2 c0-1.5 3.7-0.3 4.5-0.3c2.2 0 0.5-5.8 0.3-7c-0.3-1.7-0.7-3.4-1.1-5.2c-0.3-1.7 0-3.2-2-3.2c-2.7 0-5.7-0.2-8.4 0.3 c-2.1 0.4-2.9 6.3-3.2 8c-0.4 1.6-2.2 7.6 1.1 6.7c0.8-0.2 2.8 0 1.7 1.3c-0.8 0.9-4.1 0.2-5.2 0.2c-1.3 0-6.8 1-6.8-0.9 c0-1.7 1.9 0 2.8-0.4c1.3-0.6 2.1-2.6 2.7-3.8c3-6 5.2-12.4 7.6-18.7c1.1-3 2.3-6 3.3-9.1c0.4-1.2 0.8-2.5 1-3.8 c0.2-1.7-2.1-1.1-3.1-1c-1 0.2-3.9 0.8-3.9-1c0-1.1 2-0.6 2.7-0.6c3.8 0.3 7.6 0.4 11.5 0.3c3.6 0 7.2-0.1 10.8-0.3 c1.6 0 0.7 2.2-1 1.5c-1.3-0.4-1.4 0.2-1.3 1.3c0.9 6.3 2.4 12.5 3.7 18.7c0.9 4 1.7 7.9 2.7 11.9c0.3 1.4 0.6 3.2 1.4 4.3 C103.9 238.8 106.5 237.5 106.5 238.4z M84.5 221.3c-0.7-4-1.5-8-2.4-11.9c-0.1-0.5-0.8-4.4-1.5-3.2c-0.8 1.5-1.3 3.4-1.9 5 c-0.7 1.9-1.5 3.9-2.2 5.8c-0.4 1.1-1.4 2.7-1.4 3.9C75.2 222.3 84.5 222.1 84.5 221.3C84.4 220.7 84.5 221.5 84.5 221.3z" class="style1"/><path d="M115 217.7c1.6 0 3.3-0.4 4.6-1.4c1.2-1 1.4-2.7-0.2-3.4c-1.9-0.8-3.6 0.6-4.8 2 C113.6 216 112.8 217.7 115 217.7z" class="style0"/><path d="M125.7 222.2c4 0 3.5-5.4-0.7-4.7c-1.6 0.2-3 2.1-4.4 2.1c-2 0-4-0.7-6.1-0.7c-0.8 0-2.7-0.3-3.2 0.7 c-0.9 1.9 3.1 1.6 3.9 1.6c1.9-0.1 3.8-0.5 5.7-0.5C122.6 220.6 123.9 222.2 125.7 222.2z" class="style0"/><path d="M118.9 227.4c1.7 0 2.3-2.1 1.2-3.2c-1.1-1.3-3-1.8-4.6-1.9c-2-0.2-2.5 0.8-1.1 2.3 C115.4 225.6 117.2 227.4 118.9 227.4z" class="style0"/><g><path d="M13.4 222.3c-1.6 0-3.3 0.4-4.6 1.4c-1.2 1-1.4 2.7 0.2 3.4c1.9 0.8 3.6-0.6 4.8-2 C14.8 223.9 15.7 222.3 13.4 222.3z" class="style0"/><path d="M2.8 217.8c-4 0-3.5 5.4 0.7 4.7c1.6-0.2 3-2.1 4.4-2.1c2 0 4.1 0.7 6.1 0.7c0.8 0 2.7 0.3 3.2-0.7 c0.9-1.9-3.1-1.6-3.9-1.6c-1.9 0.1-3.8 0.5-5.7 0.5C5.8 219.4 4.5 217.8 2.8 217.8z" class="style0"/><path d="M9.5 212.6c-1.7 0-2.3 2.1-1.2 3.2c1.1 1.3 3 1.8 4.6 1.9c2 0.2 2.5-0.8 1.1-2.3 C13 214.3 11.2 212.6 9.5 212.6z" class="style0"/></g></g><g><path d="M5 419.9c-3.2-0.801-5-4.2-5-7.4s1.8-6.6 5-7.5c0.8-3.2 4.2-5 7.5-5c3.2 0 6.6 1.9 7.5 5 c3.2 0.8 5 4.3 5 7.5s-1.9 6.6-5 7.4c-0.8 3.199-4.3 5.1-7.5 5.1S5.8 423.1 5 419.9z M19.3 420c-0.3 0-0.5 0.1-0.8 0.1 c-3.7 0-5.3-2.199-5.3-4.1c0-1.5 1-2.8 2.8-2.8c2.8 0 4 3 4 5.3c0 0.3 0 0.5-0.1 0.8c2.8-0.8 4.4-3.899 4.4-6.8s-1.6-6-4.4-6.8 c0 0.3 0.1 0.5 0.1 0.8c0 2.3-1.2 5.3-4 5.3c-1.9 0-2.8-1.2-2.8-2.7c0-1.899 1.8-4.3 5.3-4.3c0.3 0 0.5 0 0.8 0.1 c-0.8-2.801-3.9-4.4-6.8-4.4s-6 1.6-6.8 4.4c0.3 0 0.5-0.101 0.8-0.101c3.5 0 5.3 2.3 5.3 4.3c0 1.4-0.9 2.7-2.8 2.7 c-2.8 0-4-3.1-4-5.3c0-0.3 0-0.5 0-0.8c-2.8 0.8-4.3 3.899-4.3 6.8s1.5 6 4.3 6.8c0-0.3 0-0.5 0-0.8c0-2.3 1.2-5.3 4-5.3 c1.8 0 2.8 1.3 2.8 2.8c0 1.9-1.6 4.1-5.3 4.1c-0.3 0-0.6 0-0.8-0.1c0.9 2.8 4 4.4 6.8 4.4C15.4 424.4 18.5 422.8 19.3 420z M8.9 411.2c1.5 0 2.3-1 2.3-2.101c0-1.699-1.6-3.699-4.7-3.699c-0.3 0-0.6 0-1 0.1c-0.1 0.3-0.1 0.6-0.1 0.9 C5.5 408.5 6.5 411.2 8.9 411.2z M11.2 416c0-1.2-0.8-2.3-2.3-2.3c-2.4 0-3.5 2.7-3.5 4.7c0 0.3 0 0.6 0.1 1c0.3 0.1 0.6 0.1 1 0.1 C9.7 419.5 11.2 417.6 11.2 416z M13.8 409.1c0 1.1 0.8 2.1 2.3 2.101c2.4 0 3.5-2.7 3.5-4.8c0-0.301 0-0.601-0.1-0.9 c-0.3-0.1-0.6-0.1-0.9-0.1C15.4 405.5 13.8 407.5 13.8 409.1z M16.1 413.8c-1.5 0-2.3 1-2.3 2.3c0 1.6 1.4 3.5 4.7 3.5 c0.3 0 0.6 0 0.9-0.1c0.1-0.3 0.1-0.6 0.1-1C19.5 416.5 18.5 413.8 16.1 413.8z" class="style2"/></g><g><path d="M2.8 611.2C1 610.7 0 608.8 0 607s1-3.7 2.8-4.2C3.3 601 5.2 600 7 600s3.7 1 4.2 2.8 c1.8 0.5 2.8 2.4 2.8 4.2s-1 3.7-2.8 4.2C10.7 613 8.8 614 7 614S3.3 613 2.8 611.2z M10.8 611.2c-0.1 0-0.3 0-0.4 0 c-2.1 0-3-1.2-3-2.3C7.4 608.1 8 607.3 9 607.3c1.6 0 2.3 1.7 2.3 3c0 0.2 0 0.3 0 0.5c1.6-0.5 2.4-2.2 2.4-3.8s-0.9-3.3-2.4-3.8 c0 0.1 0 0.3 0 0.399c0 1.301-0.7 3-2.3 3c-1.1 0-1.6-0.699-1.6-1.5c0-1.1 1-2.399 3-2.399c0.1 0 0.3 0 0.4 0 c-0.5-1.601-2.2-2.4-3.8-2.4s-3.3 0.9-3.8 2.4c0.1 0 0.3 0 0.5 0c2 0 3 1.3 3 2.399c0 0.801-0.5 1.5-1.6 1.5 c-1.6 0-2.3-1.699-2.3-3c0-0.1 0-0.3 0-0.399c-1.6 0.5-2.4 2.2-2.4 3.8s0.9 3.3 2.4 3.8c0-0.1 0-0.3 0-0.5c0-1.3 0.7-3 2.3-3 c1 0 1.6 0.7 1.6 1.601c0 1.1-0.9 2.3-3 2.3c-0.2 0-0.3 0-0.5 0c0.5 1.6 2.2 2.5 3.8 2.5S10.3 612.8 10.8 611.2z M5 606.3 c0.8 0 1.3-0.5 1.3-1.2c0-0.899-0.9-2.1-2.6-2.1c-0.2 0-0.4 0-0.5 0c0 0.2 0 0.3 0 0.5C3.1 604.8 3.6 606.3 5 606.3z M6.3 609 c0-0.7-0.4-1.3-1.3-1.3c-1.3 0-1.9 1.5-1.9 2.6c0 0.2 0 0.4 0 0.5c0.2 0 0.3 0 0.5 0C5.5 610.9 6.3 609.9 6.3 609z M7.7 605.1 c0 0.6 0.4 1.2 1.3 1.2c1.3 0 1.9-1.5 1.9-2.7c0-0.199 0-0.399 0-0.5c-0.2 0-0.3 0-0.5 0C8.6 603.1 7.7 604.2 7.7 605.1z M9 607.7c-0.8 0-1.3 0.6-1.3 1.3c0 0.9 0.8 1.9 2.6 1.9c0.2 0 0.4 0 0.5 0c0-0.2 0-0.301 0-0.5C10.9 609.2 10.4 607.7 9 607.7z" class="style3"/></g><g><path d="M246.8 1003.2c-0.5-2-2.7-3.2-4.8-3.2s-4.3 1.2-4.8 3.2c-2.1 0.5-3.2 2.7-3.2 4.8s1.2 4.2 3.2 4.8 c0.5 2.1 2.7 3.2 4.8 3.2c2 0 4.2-1.2 4.8-3.2c2-0.5 3.2-2.7 3.2-4.8C250 1006 248.8 1003.8 246.8 1003.2z M246.5 1004.1 c0 1.301-0.7 3-2.2 3c-1 0-1.4-0.6-1.4-1.3c0-1.1 1-2.399 3-2.399c0.2 0 0.4 0 0.6 0.1C246.5 1003.7 246.5 1003.9 246.5 1004.1z M237.5 1003.5c0.2 0 0.4-0.1 0.6-0.1c2 0 3 1.3 3 2.399c0 0.7-0.5 1.3-1.4 1.3c-1.5 0-2.2-1.699-2.2-3 C237.5 1003.9 237.5 1003.7 237.5 1003.5z M237.5 1011.8c0-1.3 0.7-3 2.2-3c0.9 0 1.4 0.7 1.4 1.4c0 1-0.9 2.2-3 2.2 c-0.2 0-0.4 0-0.6 0C237.5 1012.2 237.5 1012.1 237.5 1011.8z M246.5 1012.5c-0.2 0-0.4 0-0.6 0c-2.1 0-3-1.2-3-2.2 c0-0.8 0.5-1.399 1.4-1.399c1.5 0 2.2 1.7 2.2 3C246.5 1012.1 246.5 1012.2 246.5 1012.5z M246.8 1012.4c0-0.2 0-0.301 0-0.5 c0-1.4-0.8-3.4-2.6-3.4c-1.2 0-1.8 0.9-1.8 1.8c0 1.2 1 2.6 3.4 2.601c0.2 0 0.3 0 0.5 0c-0.5 1.8-2.5 2.8-4.4 2.8 c-1.8 0-3.8-1-4.4-2.8c0.2 0 0.3 0 0.5 0c2.4 0 3.4-1.4 3.4-2.601c0-1-0.7-1.8-1.8-1.8c-1.8 0-2.6 1.9-2.6 3.4 c0 0.2 0 0.4 0 0.5c-1.8-0.5-2.8-2.5-2.8-4.4c0-1.8 1-3.8 2.8-4.4c0 0.2 0 0.3 0 0.5c0 1.4 0.8 3.4 2.6 3.4 c1.2 0 1.8-0.8 1.8-1.7c0-1.2-1.1-2.7-3.4-2.7c-0.2 0-0.4 0-0.5 0c0.6-1.8 2.5-2.8 4.4-2.8c1.8 0 3.8 1 4.4 2.8c-0.2 0-0.3 0-0.5 0 c-2.2 0-3.4 1.5-3.4 2.7c0 0.9 0.6 1.7 1.8 1.7c1.8 0 2.6-2 2.6-3.4c0-0.199 0-0.3 0-0.5c1.8 0.5 2.8 2.5 2.8 4.4 S248.6 1011.8 246.8 1012.4z" class="style0"/><polygon points="484,1008 255,1008 255,1006 254,1006 254,1008 250,1008 250,1009 254,1009 254,1011 255,1011 255,1009 484,1009" class="style0"/><polygon points="230,1006 229,1006 229,1008 0,1008 0,1009 229,1009 229,1011 230,1011 230,1009 234,1009 234,1008 230,1008" class="style0"/></g><path d="M5.6 1218H2.2v-9H0v-3.1h2.2v-1.801c0-2.5 0.7-4.1 3.7-4.1h2.5v3.1H6.8c-1.2 0-1.2 0.4-1.2 1.2v1.601h2.8 l-0.3 3.1H5.6V1218z" class="style0"/><path d="M19.7 1401.9c-0.7 0.3-1.5 0.5-2.3 0.6c0.8-0.5 1.5-1.3 1.8-2.2c-0.8 0.5-1.6 0.8-2.6 1 c-0.7-0.8-1.8-1.3-2.9-1.3c-2.2 0-4 1.8-4 4c0 0.3 0 0.6 0.1 0.9c-3.4-0.2-6.3-1.801-8.3-4.2c-0.3 0.6-0.5 1.3-0.5 2 c0 1.4 0.7 2.6 1.8 3.399c-0.7 0-1.3-0.199-1.8-0.5c0 0 0 0 0 0.101c0 2 1.4 3.6 3.2 4c-0.3 0.1-0.7 0.1-1.1 0.1 c-0.3 0-0.5 0-0.8-0.1c0.5 1.6 2 2.8 3.8 2.8c-1.4 1.1-3.1 1.7-5 1.7c-0.3 0-0.6 0-1-0.101c1.8 1.1 3.9 1.8 6.2 1.8 c7.4 0 11.5-6.2 11.5-11.5c0-0.2 0-0.301 0-0.5C18.5 1403.4 19.1 1402.7 19.7 1401.9z" class="style0"/><path d="M1.5 1608.1c-0.8 0-1.5 0.7-1.5 1.5c0 0.8 0.7 1.5 1.5 1.5s1.5-0.699 1.5-1.5 C2.9 1608.7 2.3 1608.1 1.5 1608.1z M0 1603.7v2.1c1.4 0 2.7 0.5 3.6 1.5c1 1 1.5 2.3 1.5 3.601h2.1C7.3 1607 4 1603.7 0 1603.7z M0 1600v2.1c4.9 0 8.9 4 8.9 8.9H11C11 1604.9 6.1 1600 0 1600z" class="style0"/><path d="M1.4 1800h11c0.2 0 0.4 0 0.6 0.1l-6.1 7.101l-6.1-7.101C1 1800 1.2 1800 1.4 1800z M0 1809.6v-8.199v-0.101 l4 4.7l-4 4C0 1809.9 0 1809.7 0 1809.6z M12.4 1811h-11c-0.1 0-0.2 0-0.4 0l3.9-3.9l1.9 2.301l1.9-2.301l3.9 3.9 C12.6 1811 12.5 1811 12.4 1811z M13.8 1809.6c0 0.1 0 0.2 0 0.4l-4-4l4-4.7v0.101V1809.6z" class="style0"/><polygon points="7.7,2015.4 0,2007.7 7.7,2000 9.1,2001.4 2.8,2007.7 9.1,2014" class="style4"/><polygon points="1.4,2200 9.1,2207.7 1.4,2215.4 0,2214 6.3,2207.7 0,2201.4" class="style4"/><polygon points="7.7,2415.4 0,2407.7 7.7,2400 9.1,2401.4 2.8,2407.7 9.1,2414" class="style0"/><polygon points="1.4,2600 9.1,2607.7 1.4,2615.4 0,2614 6.3,2607.7 0,2601.4" class="style0"/><g><path d="M10 805.027c0 1.04-1.297 0.945-1.934 0.696c-1.047-0.409-1.517-0.373-2.636-0.222 c-0.09 1.048-0.092 1.5 0.3 2.516c0.257 0.6 0.3 1.983-0.736 1.983c-0.921 0-1.021-1.066-0.835-1.74 c0.103-0.376 0.316-0.617 0.536-0.922c0.307-0.425 0.073-0.974 0.035-1.441C4.563 803.8 0 807.4 0 805 c0-0.925 1.025-1.101 1.731-0.853c0.938 0.3 1.2 0.7 2.2 0.602c0.859-0.081 0.719-0.166 0.818-1.006 c0.07-0.596 0.061-0.854-0.255-1.367c-0.388-0.631-0.859-2.041 0.221-2.335c0.969-0.264 1.4 0.9 1.1 1.6 c-0.129 0.347-0.273 0.689-0.439 1.02c-0.245 0.491-0.048 1.158-0.013 1.678c0.039 0.6 0.6 0.4 1.2 0.5 c0.61 0.1 0.875-0.237 1.386-0.536C8.664 803.9 10 804 10 805.027z M4.06 806.328c0 0.671-0.173 1.539-0.729 2 c-0.499 0.399-1.117 0.028-1.23-0.542C1.899 806.8 4.1 804.8 4.1 806.328z M4.095 803.657c0 1.462-1.986-0.383-1.986-1.142 c0-0.54 0.391-1.2 1.03-0.958C3.889 801.8 4.1 803 4.1 803.657z M7.874 807.805c0 0.523-0.525 0.855-1.004 0.7 c-0.66-0.259-0.891-1.205-0.96-1.824C5.665 804.4 7.9 806.9 7.9 807.805z M7.908 802.146c0 0.658-1.968 3.06-1.968 1.6 c0-0.692 0.176-1.583 0.721-2.065C7.098 801.3 7.9 801.5 7.9 802.146z" class="style5"/></g></svg>